<svg fill="none" height="48" viewBox="0 0 48 48" width="48" xmlns="http://www.w3.org/2000/svg"><path d="m42.6562 0c-1.5 0-2.9062.65625-3.9374 1.6875-20.4376 18.1875-22.875 18.6563-21.9376 24.75-3.8437.4687-7.31245 2.3437-9.37495 7.6875-.28125.6562-.84375 1.0312-1.5 1.0312-1.21875 0-4.875-2.9062-5.90625-3.6562 0 8.8125 4.03125 16.5 13.6875 16.5 10.9687 0 14.25-8.1562 13.5937-13.5938 5.25-.6562 9.0938-5.9062 19.3126-25.0312.75-1.40625 1.4062-2.90625 1.4062-4.5 0-2.8125-2.625-4.875-5.3438-4.875zm-20.5312 41.8125c-1.875 2.1563-4.6875 3.1875-8.4375 3.1875-6 0-8.71875-3.5625-9.84375-7.3125.75.2813 1.40625.4687 2.0625.4687 1.875 0 3.65625-1.125 4.31255-3 .6562-1.5937 1.5-5.0624 7.875-5.8124l6.0937 4.7812c.375 2.8125-.0937 5.4375-2.0625 7.6875zm21.8438-33.84375c-11.1563 20.71875-13.5 22.96875-18.1876 23.53125l-5.8124-4.5c-.8438-5.25-1.4063-3.2812 20.8124-23.15625.5626-.46875 1.2188-.84375 1.875-.84375 1.125 0 2.3438.75 2.3438 1.875 0 1.03125-.5625 2.15625-1.0312 3.09375z" fill="#e27730"/></svg>