<svg width="17" height="16" viewBox="0 0 17 16" fill="none" xmlns="http://www.w3.org/2000/svg">
<path d="M7.14443 0.532863L5.19143 4.49286L0.822427 5.12986C0.645693 5.15566 0.479704 5.2304 0.34324 5.34564C0.206776 5.46087 0.105283 5.61199 0.0502408 5.7819C-0.00480184 5.95182 -0.0111973 6.13374 0.0317796 6.3071C0.0747565 6.48046 0.165391 6.63833 0.293428 6.76286L3.45443 9.84286L2.70343 14.1939C2.67311 14.3698 2.69266 14.5507 2.75989 14.7161C2.82711 14.8816 2.93931 15.0248 3.08378 15.1298C3.22825 15.2347 3.39921 15.297 3.5773 15.3098C3.75539 15.3225 3.93349 15.2851 4.09143 15.2019L8.00343 13.1479L11.9124 15.2029C12.0706 15.2867 12.249 15.3244 12.4276 15.3119C12.6061 15.2993 12.7775 15.237 12.9224 15.1319C13.0673 15.0268 13.1798 14.8832 13.2471 14.7174C13.3145 14.5516 13.334 14.3702 13.3034 14.1939L12.5514 9.84286L15.7124 6.76286C15.8405 6.63833 15.9311 6.48046 15.9741 6.3071C16.017 6.13374 16.0107 5.95182 15.9556 5.7819C15.9006 5.61199 15.7991 5.46087 15.6626 5.34564C15.5261 5.2304 15.3602 5.15566 15.1834 5.12986L10.8144 4.49286L8.86143 0.532863C8.7822 0.372869 8.65983 0.238199 8.50814 0.144045C8.35645 0.0498911 8.18146 0 8.00293 0C7.82439 0 7.64941 0.0498911 7.49771 0.144045C7.34602 0.238199 7.22366 0.372869 7.14443 0.532863Z" fill="#FDB82C"/>
</svg>
